<?xml version="1.0" standalone="no"?>
<!DOCTYPE svg PUBLIC "-//W3C//DTD SVG 20010904//EN"
 "http://www.w3.org/TR/2001/REC-SVG-20010904/DTD/svg10.dtd">
<svg version="1.0" xmlns="http://www.w3.org/2000/svg"
 width="630.000000pt" height="450.000000pt" viewBox="0 0 630.000000 450.000000"
 preserveAspectRatio="xMidYMid meet">

<g transform="translate(0.000000,450.000000) scale(0.100000,-0.100000)"
fill="#000000" stroke="none">
<path d="M3341 4066 c-8 -9 -10 -183 -9 -632 l3 -619 40 -19 c22 -10 71 -36
109 -59 59 -34 67 -42 53 -51 -13 -10 92 -74 611 -373 515 -298 629 -360 644
-352 27 14 203 -87 203 -116 0 -30 -1102 -665 -1154 -665 -29 0 -109 43 -396
209 l-360 208 -5 214 c-4 191 -7 218 -25 248 -16 27 -83 70 -360 230 l-340
196 -3 270 c-1 148 -6 273 -10 277 -4 4 -6 -114 -4 -262 2 -149 0 -270 -3
-270 -3 0 -87 47 -187 105 -100 58 -189 105 -198 105 -8 0 -23 -7 -32 -14 -17
-12 -18 -48 -18 -501 0 -428 -2 -493 -17 -534 -12 -34 -14 -57 -8 -86 l9 -40
6 60 c12 112 42 165 101 179 15 3 29 15 32 26 3 11 10 20 16 20 16 0 13 -36
-4 -54 -9 -8 -14 -21 -13 -28 2 -7 -7 -14 -19 -16 -23 -3 -23 -6 -23 -148 0
-79 -2 -144 -5 -144 -15 0 -65 32 -73 45 -5 9 -9 -57 -9 -161 -2 -166 -1 -177
18 -181 10 -3 16 -9 13 -15 -3 -5 -14 -6 -25 -3 -21 7 -28 -20 -6 -28 14 -5
68 20 79 36 11 18 -3 29 -28 23 -13 -4 -24 -5 -24 -4 0 2 9 37 20 78 11 41 20
86 20 99 0 47 19 7 25 -54 15 -145 27 -197 46 -202 10 -3 19 -10 19 -15 0 -5
-9 -6 -20 -3 -14 4 -20 2 -20 -9 0 -25 19 -28 53 -9 40 24 43 49 5 45 l-27 -3
5 83 c3 46 9 160 12 255 l7 172 435 -251 c239 -138 447 -255 463 -261 15 -6
27 -14 27 -18 0 -3 11 -4 25 -1 l25 4 -1 272 c-1 149 -4 261 -6 249 -2 -13 -9
-23 -15 -23 -6 0 -8 11 -6 24 3 15 0 27 -8 30 -10 4 -12 -2 -7 -24 3 -17 2
-30 -1 -30 -4 0 -90 48 -192 107 -130 76 -184 113 -184 126 0 21 -9 25 204
-97 82 -47 154 -82 159 -79 13 8 10 11 -225 147 -162 94 -204 123 -201 137 7
26 427 -217 431 -249 2 -12 16 -29 33 -37 l29 -16 0 -270 c0 -239 2 -270 15
-259 12 10 15 56 17 265 l3 253 365 -212 365 -211 65 1 65 0 525 305 c514 298
525 305 528 337 2 24 10 36 28 44 13 6 27 21 30 32 2 12 3 296 2 633 l-3 611
-25 27 c-17 18 -31 24 -47 21 -16 -5 -220 108 -818 454 -438 253 -800 460
-805 460 -4 0 -13 -6 -19 -14z m832 -507 c430 -249 788 -456 795 -462 9 -7 12
-139 12 -598 0 -324 -3 -589 -6 -589 -4 0 -364 206 -800 457 l-794 458 0 593
c0 325 2 592 5 592 3 0 358 -203 788 -451z m-2043 -1233 c0 -8 -14 -19 -30
-26 -17 -7 -33 -16 -35 -21 -3 -4 11 -34 30 -66 36 -59 41 -73 27 -73 -6 0
-24 27 -84 127 l-19 32 48 24 c49 26 63 26 63 3z m156 -20 c8 -22 -116 -260
-129 -247 -7 7 8 48 48 136 33 69 63 125 67 125 5 0 11 -6 14 -14z m252 -66
c41 -23 62 -41 62 -53 0 -10 -3 -16 -7 -14 -68 36 -133 82 -133 94 0 17 -3 18
78 -27z m-184 -80 c27 -44 47 -82 45 -84 -12 -11 -70 -36 -83 -36 -31 0 -26
20 8 37 20 9 36 20 36 24 0 5 -16 34 -35 66 -19 32 -35 61 -35 66 0 22 21 -2
64 -73z m465 -79 c123 -71 181 -110 179 -120 -2 -8 -6 -15 -9 -15 -3 -1 -87
46 -187 104 -131 76 -182 110 -182 123 0 10 4 17 9 15 4 -1 90 -50 190 -107z
m-94 -7 c140 -81 185 -112 185 -126 0 -11 -4 -18 -9 -16 -4 2 -90 50 -189 108
-126 73 -182 110 -182 123 0 9 2 17 5 17 2 0 88 -48 190 -106z m-41 -40 c99
-57 166 -102 166 -111 0 -21 -10 -16 -175 79 -142 82 -175 104 -175 120 0 16
20 7 184 -88z m-157 18 c9 -22 -4 -24 -36 -7 -19 9 -31 23 -31 36 0 20 1 20
31 2 17 -10 34 -24 36 -31z m32 -72 c53 -29 81 -51 81 -62 0 -10 -3 -18 -7
-18 -22 2 -169 99 -171 114 -5 22 -3 22 97 -34z m-58 -37 c16 -10 29 -25 29
-35 0 -17 -2 -17 -35 -1 -21 10 -35 24 -35 35 0 22 4 22 41 1z m-245 -39 c-4
-9 -1 -23 5 -30 13 -16 -4 -44 -28 -44 -22 0 -26 26 -8 59 16 32 42 44 31 15z
m594 -94 c135 -77 156 -93 146 -108 -4 -6 -75 30 -171 86 -120 70 -165 101
-165 115 0 18 1 18 33 -1 17 -11 88 -53 157 -92z m-309 40 c38 -23 69 -47 69
-55 0 -22 -13 -19 -82 22 -61 35 -78 49 -78 66 0 15 23 6 91 -33z m237 -210
c90 -51 132 -81 132 -92 0 -10 -3 -18 -7 -18 -3 0 -89 48 -190 107 -133 78
-183 112 -183 126 0 16 7 14 58 -15 32 -18 118 -67 190 -108z m-71 -121 c204
-117 267 -157 279 -180 21 -41 16 -188 -7 -202 -12 -7 -77 26 -285 148 -148
87 -274 165 -281 174 -13 17 -18 202 -6 215 10 10 16 7 300 -155z m111 36 c84
-48 152 -93 152 -101 0 -8 -5 -14 -11 -14 -5 0 -89 46 -185 101 -131 77 -174
107 -174 121 0 19 0 19 33 0 17 -11 101 -59 185 -107z"/>
<path d="M3696 3665 c-9 -26 -7 -32 5 -12 6 10 9 21 6 23 -2 3 -7 -2 -11 -11z"/>
<path d="M3776 3613 c-6 -14 -5 -15 5 -6 7 7 10 15 7 18 -3 3 -9 -2 -12 -12z"/>
<path d="M4795 3067 c57 -38 95 -58 95 -49 0 6 -21 22 -46 36 -48 27 -84 36
-49 13z"/>
<path d="M4784 3041 c7 -10 91 -61 101 -61 15 0 -9 20 -51 44 -50 28 -58 31
-50 17z"/>
<path d="M4786 3001 c21 -20 104 -62 104 -54 0 6 -22 22 -49 36 -48 27 -74 35
-55 18z"/>
<path d="M2677 1436 c-4 -10 -1 -13 8 -10 10 4 15 -6 18 -38 4 -41 4 -41 3 6
-1 48 -18 72 -29 42z"/>
<path d="M2580 3431 c-6 -11 -18 -18 -28 -16 -12 2 -18 -4 -20 -18 0 -12 -6
-23 -12 -25 -5 -2 -10 -10 -10 -18 0 -8 -3 -14 -7 -14 -5 0 -9 -17 -11 -37 -1
-20 -6 -41 -11 -47 -13 -16 -6 -146 9 -177 15 -32 67 -62 55 -32 -3 10 -10 37
-14 61 -5 23 -9 45 -10 47 -11 45 17 172 55 247 23 45 27 71 4 29z"/>
<path d="M1063 2203 l-63 -35 0 -84 0 -84 48 27 c96 55 92 48 84 135 l-7 76
-62 -35z"/>
<path d="M5163 1457 c-89 -53 -110 -73 -28 -27 92 52 121 70 110 70 -5 -1 -42
-20 -82 -43z"/>
<path d="M5408 1475 c-8 -8 25 -75 36 -72 20 6 31 37 20 55 -11 17 -45 28 -56
17z"/>
<path d="M4983 1352 c-45 -26 -85 -51 -90 -56 -10 -11 -9 -11 95 49 45 26 82
49 82 51 0 6 -1 6 -87 -44z"/>
<path d="M4953 1131 c-204 -119 -375 -220 -380 -225 -4 -5 3 -3 17 4 49 25
735 423 745 431 28 27 -44 -13 -382 -210z"/>
<path d="M4848 1274 c-38 -20 -36 -28 2 -9 17 9 30 18 30 20 0 7 -1 6 -32 -11z"/>
<path d="M1196 1153 c-121 -71 -167 -93 -195 -93 -27 0 -32 -3 -21 -10 8 -5
24 -10 35 -10 20 0 306 159 334 186 36 34 -5 14 -153 -73z"/>
<path d="M4723 1202 c-45 -26 -85 -51 -90 -56 -10 -11 -9 -11 95 49 45 26 82
49 82 51 0 6 -1 6 -87 -44z"/>
<path d="M4588 1124 c-38 -20 -36 -28 2 -9 17 9 30 18 30 20 0 7 -1 6 -32 -11z"/>
<path d="M4463 1052 c-45 -26 -85 -51 -90 -56 -10 -11 -9 -11 95 49 45 26 82
49 82 51 0 6 -1 6 -87 -44z"/>
<path d="M4238 922 c-64 -37 -120 -71 -125 -76 -10 -11 -14 -13 130 69 99 56
129 76 115 75 -2 0 -56 -31 -120 -68z"/>
<path d="M3227 969 c8 -10 11 -58 10 -151 -1 -75 0 -135 2 -133 9 9 61 -27 62
-43 0 -10 3 -12 6 -4 4 9 12 8 34 -5 16 -10 29 -21 29 -26 0 -4 4 -6 10 -2 5
3 18 -3 30 -15 11 -11 22 -19 26 -17 3 1 15 -8 28 -20 22 -22 23 -22 52 -2 16
10 34 19 41 19 6 0 43 -18 82 -41 l71 -41 75 42 75 41 0 89 c0 70 -3 89 -16
94 -8 3 -12 2 -9 -4 3 -5 -24 -25 -59 -45 l-65 -36 -40 20 c-22 12 -42 24 -45
29 -2 4 27 25 65 47 39 22 66 41 60 43 -7 2 -11 37 -11 88 0 46 -2 84 -5 84
-2 0 -65 -36 -140 -80 -75 -43 -132 -74 -129 -68 5 8 1 9 -10 5 -10 -4 -15 -3
-11 3 8 12 -52 43 -67 34 -7 -4 -8 -3 -4 4 8 14 -50 46 -66 36 -7 -4 -8 -3 -4
4 8 14 -30 36 -46 26 -7 -4 -8 -3 -4 4 4 6 -4 16 -16 23 -20 11 -21 10 -11 -2z"/>
<path d="M4457 893 c-12 -12 -7 -22 8 -17 8 4 15 10 15 15 0 11 -14 12 -23 2z"/>
<path d="M2487 785 c-9 -8 -31 -15 -49 -15 l-33 -1 45 -23 c46 -25 63 -25 54
-2 -3 8 4 16 16 19 13 3 20 12 18 19 -7 19 -33 21 -51 3z"/>
<path d="M2340 728 c19 -12 38 -27 42 -33 4 -5 8 -7 8 -2 0 8 51 -22 61 -36 4
-5 13 -7 20 -5 7 2 -24 25 -69 51 -82 48 -126 65 -62 25z"/>
</g>
</svg>
